<svg xmlns="http://www.w3.org/2000/svg" xmlns:xlink="http://www.w3.org/1999/xlink" width="200" zoomAndPan="magnify" viewBox="0 0 150 74.999997" height="100" preserveAspectRatio="xMidYMid meet" version="1.0"><defs><g/><clipPath id="1faf7dc9da"><path d="M 2.003906 1.789062 L 90.644531 1.789062 L 90.644531 73.160156 L 2.003906 73.160156 Z M 2.003906 1.789062 " clip-rule="nonzero"/></clipPath><clipPath id="539ec83d9a"><path d="M 7.511719 7.511719 L 86.394531 7.511719 L 86.394531 66.859375 L 7.511719 66.859375 Z M 7.511719 7.511719 " clip-rule="nonzero"/></clipPath></defs><rect x="-15" width="180" fill="#ffffff" y="-7.5" height="89.999996" fill-opacity="1"/><rect x="-15" width="180" fill="#ffffff" y="-7.5" height="89.999996" fill-opacity="1"/><rect x="-15" width="180" fill="#ffffff" y="-7.5" height="89.999996" fill-opacity="1"/><g clip-path="url(#1faf7dc9da)"><path stroke-linecap="butt" transform="matrix(0.751741, 0, 0, 0.751367, 2.005709, 1.790899)" fill="none" stroke-linejoin="miter" d="M -0.00239841 -0.00244417 L 117.911325 -0.00244417 L 117.911325 94.985854 L -0.00239841 94.985854 L -0.00239841 -0.00244417 " stroke="#000000" stroke-width="6" stroke-opacity="1" stroke-miterlimit="4"/></g><g clip-path="url(#539ec83d9a)"><path fill="#000000" d="M 7.511719 7.511719 L 86.394531 7.511719 L 86.394531 66.859375 L 7.511719 66.859375 L 7.511719 7.511719 " fill-opacity="1" fill-rule="nonzero"/></g><g fill="#ffffff" fill-opacity="1"><g transform="translate(34.087032, 44.702936)"><g><path d="M 8.902344 0.28125 C 13.527344 0.28125 16.648438 -3.226562 16.5625 -8.171875 L 8.386719 -8.171875 L 8.386719 -6.367188 L 14.515625 -6.367188 C 14.128906 -3.527344 11.980469 -1.613281 8.945312 -1.613281 C 5.570312 -1.613281 3.183594 -4.042969 3.183594 -7.527344 C 3.183594 -11.011719 5.550781 -13.441406 8.925781 -13.441406 C 11.25 -13.441406 13.097656 -12.300781 14.042969 -10.367188 L 16.109375 -10.367188 C 15.140625 -13.335938 12.300781 -15.335938 8.859375 -15.335938 C 4.453125 -15.335938 1.246094 -12.042969 1.246094 -7.527344 C 1.246094 -2.988281 4.472656 0.28125 8.902344 0.28125 Z M 8.902344 0.28125 "/></g></g></g><g fill="#ffffff" fill-opacity="1"><g transform="translate(53.459297, 44.702936)"><g><path d="M 2.195312 0 L 11.570312 0 L 11.570312 -1.761719 L 4.085938 -1.761719 L 4.085938 -6.796875 L 10.796875 -6.796875 L 10.796875 -8.539062 L 4.085938 -8.539062 L 4.085938 -13.292969 L 11.335938 -13.292969 L 11.335938 -15.054688 L 2.195312 -15.054688 Z M 2.195312 0 "/></g></g></g><g fill="#ffffff" fill-opacity="1"><g transform="translate(68.058537, 44.702936)"><g><path d="M 2.195312 0 L 4.066406 0 L 4.066406 -11.785156 L 12.386719 0 L 14.152344 0 L 14.152344 -15.054688 L 12.300781 -15.054688 L 12.300781 -3.269531 L 3.980469 -15.054688 L 2.195312 -15.054688 Z M 2.195312 0 "/></g></g></g><g fill="#000000" fill-opacity="1"><g transform="translate(35.603327, 44.223656)"><g/></g></g><g fill="#000000" fill-opacity="1"><g transform="translate(40.565854, 44.223656)"><g/></g></g><g fill="#000000" fill-opacity="1"><g transform="translate(45.52838, 44.223656)"><g/></g></g><g fill="#000000" fill-opacity="1"><g transform="translate(50.490906, 44.223656)"><g/></g></g><g fill="#000000" fill-opacity="1"><g transform="translate(55.453432, 44.223656)"><g/></g></g><g fill="#000000" fill-opacity="1"><g transform="translate(60.415958, 44.223656)"><g/></g></g><g fill="#000000" fill-opacity="1"><g transform="translate(65.378484, 44.223656)"><g/></g></g><g fill="#000000" fill-opacity="1"><g transform="translate(70.34101, 44.223656)"><g/></g></g><g fill="#000000" fill-opacity="1"><g transform="translate(75.303536, 44.223656)"><g/></g></g><g fill="#000000" fill-opacity="1"><g transform="translate(80.266062, 44.223656)"><g/></g></g><g fill="#000000" fill-opacity="1"><g transform="translate(85.228588, 44.223656)"><g/></g></g><g fill="#000000" fill-opacity="1"><g transform="translate(90.181663, 44.223656)"><g><path d="M 1.589844 0 L 5.929688 0 L 5.929688 -3.714844 L 7.925781 -3.714844 C 11.75 -3.714844 14.179688 -5.929688 14.179688 -9.386719 C 14.179688 -12.847656 11.75 -15.039062 7.925781 -15.039062 L 1.589844 -15.039062 Z M 5.886719 -7.347656 L 5.886719 -11.386719 L 7.519531 -11.386719 C 8.957031 -11.386719 9.796875 -10.613281 9.796875 -9.367188 C 9.796875 -8.097656 8.957031 -7.347656 7.519531 -7.347656 Z M 5.886719 -7.347656 "/></g></g></g><g fill="#000000" fill-opacity="1"><g transform="translate(104.854422, 44.223656)"><g><path d="M 0.105469 0 L 4.703125 0 L 5.519531 -2.125 L 10.65625 -2.125 L 11.472656 0 L 16.089844 0 L 10.246094 -15.039062 L 5.949219 -15.039062 Z M 6.421875 -5.304688 L 8.097656 -9.96875 L 9.773438 -5.304688 Z M 6.421875 -5.304688 "/></g></g></g><g fill="#000000" fill-opacity="1"><g transform="translate(121.052457, 44.223656)"><g><path d="M 6.980469 0.320312 C 10.71875 0.320312 12.933594 -1.4375 12.933594 -4.402344 C 12.933594 -6.894531 11.320312 -8.355469 7.667969 -9.171875 C 5.734375 -9.601562 5.027344 -10.074219 5.027344 -10.847656 C 5.027344 -11.578125 5.671875 -12.03125 6.679688 -12.03125 C 7.882812 -12.03125 8.570312 -11.40625 8.570312 -10.269531 L 12.652344 -10.269531 C 12.652344 -13.363281 10.289062 -15.359375 6.59375 -15.359375 C 3.050781 -15.359375 0.859375 -13.597656 0.859375 -10.761719 C 0.859375 -8.226562 2.511719 -6.660156 5.90625 -6.015625 C 7.734375 -5.648438 8.613281 -5.089844 8.613281 -4.230469 C 8.613281 -3.480469 7.96875 -3.050781 6.917969 -3.050781 C 5.671875 -3.050781 4.941406 -3.714844 4.941406 -4.875 L 0.75 -4.875 C 0.75 -1.632812 3.070312 0.320312 6.980469 0.320312 Z M 6.980469 0.320312 "/></g></g></g><g fill="#000000" fill-opacity="1"><g transform="translate(134.779975, 44.223656)"><g><path d="M 6.980469 0.320312 C 10.71875 0.320312 12.933594 -1.4375 12.933594 -4.402344 C 12.933594 -6.894531 11.320312 -8.355469 7.667969 -9.171875 C 5.734375 -9.601562 5.027344 -10.074219 5.027344 -10.847656 C 5.027344 -11.578125 5.671875 -12.03125 6.679688 -12.03125 C 7.882812 -12.03125 8.570312 -11.40625 8.570312 -10.269531 L 12.652344 -10.269531 C 12.652344 -13.363281 10.289062 -15.359375 6.59375 -15.359375 C 3.050781 -15.359375 0.859375 -13.597656 0.859375 -10.761719 C 0.859375 -8.226562 2.511719 -6.660156 5.90625 -6.015625 C 7.734375 -5.648438 8.613281 -5.089844 8.613281 -4.230469 C 8.613281 -3.480469 7.96875 -3.050781 6.917969 -3.050781 C 5.671875 -3.050781 4.941406 -3.714844 4.941406 -4.875 L 0.75 -4.875 C 0.75 -1.632812 3.070312 0.320312 6.980469 0.320312 Z M 6.980469 0.320312 "/></g></g></g></svg>